# xmcd
#
# Track frame offsets: 
#        150
#        9390
#        25500
#        35907
#        47565
#        61067
#        74705
#        84590
#        96335
#        110825
#        122627
#        134675
#        146897
#        159910
#        172347
#        182452
#        195120
#        205820
#        219017
#        232665
#
# Disc length: 3288 seconds
#
# Revision: 0
# Processed by: cddbd v1.4PL0 Copyright (c) Steve Scherf et al.
# Submitted via: ExactAudioCopy v0.95a4
#
DISCID=140cd614
DTITLE=The Sun Sessions - Thr Kings of Rhythm featuring Ike Turner
DYEAR=2001
DGENRE=Blues
TTITLE0=Get It Over Baby
TTITLE1=Dead Letter Blues
TTITLE2=Hey Little Girl
TTITLE3=I'm Gonna Forget About You Baby (Matchbox)
TTITLE4=The Snuggle
TTITLE5=No Teasing Around
TTITLE6=Love Is a Gamble
TTITLE7=You Can't Be the One for Me
TTITLE8=I'm Not Going Home
TTITLE9=Ugly Woman
TTITLE10=Bourbon Street Jump
TTITLE11=When My Baby Quit Me #2
TTITLE12=Old Brother Jack
TTITLE13=How Long Will It Last
TTITLE14=If Loving Is Believing
TTITLE15=Way Down in the Congo
TTITLE16=Why Should I Keep Trying
TTITLE17=When My Baby Quit Me #1
TTITLE18=I'm Lonesome Baby
TTITLE19=The Woodchuck
EXTD=
EXTT0=
EXTT1=
EXTT2=
EXTT3=
EXTT4=
EXTT5=
EXTT6=
EXTT7=
EXTT8=
EXTT9=
EXTT10=
EXTT11=
EXTT12=
EXTT13=
EXTT14=
EXTT15=
EXTT16=
EXTT17=
EXTT18=
EXTT19=
PLAYORDER=
